<?xml version="1.0" encoding="UTF-8"?><svg id="Layer_1" xmlns="http://www.w3.org/2000/svg" viewBox="0 0 500 500"><defs><style>.cls-1{fill:#808171;}</style></defs><path class="cls-1" d="M319.69,197.03c-3.13-.71-9.99-.21-13.13-.29-6.38,.06-12.84,.13-19.33,.22-1.36-10.8-6.62-21.34-15.99-27.48-24.16-16.19-58.22,.38-60.19,29.34-6.39,.22-12.74,.46-19.02,.71-1.27,.01-4.94,.17-6.14,.18-3.63-.02-7.41,.7-10.59,2.5-7.89,4.21-12.23,13.75-10.04,22.42,0,0,1.93,7.97,1.93,7.97,7.06,29.29,11.92,59.01,19.78,88.13,3.1,9.56,12.89,15.85,22.84,14.96,27.27-1.04,54.51-3.35,81.81-3.15,5.58,.02,11.17-2.47,14.83-6.8,3.82-4.2,4.62-10.06,6.36-15.28,3.12-10.46,6.5-20.86,9.76-31.28,5.32-16.78,10.26-34.1,14.75-51.12,4.74-13.65-3.26-28.37-17.62-31.03Zm-118.87,118.42l-.1-.46s-.21-.91-.21-.91c-1.91-8.33-4.14-17.25-6.33-25.48-5.11-19.35-11.69-38.32-17.52-57.46-.74-2.39-1.47-4.79-2.16-7.19-.8-2.35-1.09-4.62-.46-7.01,1.16-4.69,5.75-8.19,10.59-8.12,9.87-.03,19.73,.29,29.59,.77,1.17,.49,2.49,.56,3.69,.19,16.41,.86,32.82,2.07,49.22,2.72,16.08,.55,32.46,.67,48.54,.72,4.19,.06,7.46,4.42,6.43,8.48,0,0-.44,1.82-.44,1.82-.5,2.21-2.13,8.7-2.63,10.94-5.8,24.18-11.5,48.88-16.49,73.2-.41,1.65-1.63,8.28-2.19,9.73-1.24,3.2-4.25,5.57-7.68,6.03-1.82,.2-5.37,.13-7.32,.21-25.47,.64-51.41-.45-76.88-1.75-3.67-.1-6.93-2.89-7.67-6.43Zm21.25-117c.16-.7,.34-1.4,.54-2.09,3.15-9.84,12.73-16.39,22.66-17.31,12.91-1.42,26.84,4.94,32.35,17.25,.1,.26,.2,.54,.29,.8-18.54,.31-37.33,.76-55.84,1.35Z"/></svg>