<svg xmlns="http://www.w3.org/2000/svg" width="16" height="20" viewBox="0 0 16 20"><g><g><path fill="#fff" d="M5.52 9.718c-.756-.55-1.502-1.062-2.214-1.621C2.291 7.299 1.3 6.47.304 5.646c-.342-.284-.395-.953-.16-1.299l6.273 4.104c.084-.104.141-.17.194-.241A75.657 75.657 0 0 1 13.5.19c.274-.276.398-.266.487.116.094.4.148.823.133 1.233-.007.21-.159.46-.316.616a74.465 74.465 0 0 0-6.027 6.753c-.056.071-.11.146-.17.228.516.349 1.026.686 1.529 1.035 1.91 1.325 3.716 2.776 5.144 4.654.55.723 1.025 1.51 1.49 2.296.29.493.301 1.047.059 1.58-.11.243-.228.253-.369.032-1.752-2.754-4.142-4.84-6.715-6.733-.706-.52-1.422-1.026-2.154-1.554-.447.619-.886 1.21-1.31 1.813a72.592 72.592 0 0 0-4.6 7.445c-.025.048-.05.099-.079.146-.122.196-.225.203-.334-.003-.27-.504-.267-1.026.008-1.52.825-1.476 1.634-2.963 2.51-4.408.803-1.327 1.684-2.604 2.532-3.902.06-.092.123-.183.201-.3"/></g></g></svg>