<?xml version="1.0" encoding="UTF-8"?><svg id="SVGDoc" width="16" height="20" xmlns="http://www.w3.org/2000/svg" version="1.1" xmlns:xlink="http://www.w3.org/1999/xlink" xmlns:avocode="https://avocode.com/" viewBox="0 0 16 20"><defs></defs><desc>Generated with Avocode.</desc><g><g><title>Fill 1 Copy 3</title><path d="M5.5195,9.71842c-0.75508,-0.55066 -1.50177,-1.0625 -2.21306,-1.6217c-1.01497,-0.79786 -2.00765,-1.62578 -3.00208,-2.45073c-0.34224,-0.2839 -0.39584,-0.95258 -0.16086,-1.29898c2.08599,1.36466 4.17039,2.72821 6.27363,4.10421c0.08378,-0.104 0.14136,-0.17091 0.19414,-0.24162c2.11599,-2.83556 4.40657,-5.51333 6.88839,-8.01829c0.27405,-0.27648 0.39792,-0.26631 0.48779,0.11612c0.09402,0.40018 0.14746,0.82266 0.13297,1.23223c-0.00746,0.21124 -0.15895,0.46012 -0.31664,0.61623c-2.14525,2.12354 -4.1493,4.37839 -6.02655,6.75288c-0.05665,0.07166 -0.1096,0.14639 -0.17044,0.22799c0.51606,0.34892 1.0264,0.68627 1.52912,1.03513c1.90938,1.32495 3.71636,2.77652 5.14422,4.65392c0.54994,0.72307 1.02493,1.51032 1.48941,2.29607c0.2912,0.49268 0.30144,1.0468 0.05899,1.58087c-0.11014,0.24268 -0.22801,0.25195 -0.36812,0.03167c-1.75261,-2.75452 -4.1426,-4.84013 -6.71517,-6.73345c-0.70638,-0.51982 -1.42219,-1.02608 -2.15434,-1.5535c-0.44732,0.61835 -0.8856,1.21034 -1.30977,1.81283c-1.67962,2.38599 -3.21462,4.86627 -4.59918,7.44423c-0.02625,0.04887 -0.05016,0.09925 -0.07952,0.14611c-0.12267,0.1961 -0.22562,0.20297 -0.33489,-0.0024c-0.2686,-0.50463 -0.2667,-1.02625 0.00887,-1.51965c0.82465,-1.47654 1.63355,-2.96386 2.50868,-4.40861c0.80367,-1.32668 1.68529,-2.60366 2.53287,-3.9023c0.06002,-0.09199 0.12267,-0.18225 0.20154,-0.29926" fill="#434241" fill-opacity="1"></path></g></g></svg>