<svg itemprop="logo" xmlns="http://www.w3.org/2000/svg" width="158" height="47" viewBox="0 0 158 47"><g><g><g><g><g><path fill="#f2f2f2" d="M27.739 30.981c0-.608-.024-1.288-.024-1.993-.025-.705 0-1.435.024-2.14.024-.705.097-1.337.195-1.896.122-.56.244-.973.415-1.289.17-.292.39-.389.683-.292.195.025.292.292.341.827.024.535 0 1.24-.122 2.09-.098.852-.293 1.824-.537 2.918a31.038 31.038 0 0 1-.95 3.307c0-.365-.025-.875-.025-1.532zm.73 1.43c.196-.56.367-1.167.563-1.823.172-.656.343-1.336.514-2.017.171-.68.294-1.36.392-1.992.098-.657.146-1.24.146-1.774 0-.535-.073-.972-.22-1.313-.122-.34-.293-.583-.538-.753-.245-.17-.49-.243-.734-.194-.245.048-.49.17-.71.413-.22.243-.391.583-.49 1.02-.048.195-.073.51-.122.924-.049.413-.073.85-.097 1.36-.025.511-.025 1.021-.05 1.58-.024.56-.024 1.07-.024 1.58V33.019c0 .12 0 .266.025.436-.05.146-.074.292-.147.438-.05.121-.123.267-.196.413-.098.146-.196.316-.294.462-.024.048-.049.097-.073.17-.025.073-.025.146-.049.218-.024.073-.024.146-.049.22-.024.145-.024.218.025.218.024 0 .097-.073.22-.195.122-.121.342-.364.612-.729.073.657.17 1.531.293 2.576.098 1.045.27 2.284.465 3.694.171.194.294.364.367.486.074.121.147.194.22.267a.433.433 0 0 0 .196.122c.05.024.122.024.22.048-.024-.121-.049-.413-.122-.85-.049-.438-.122-.948-.196-1.531-.049-.583-.147-1.19-.22-1.823-.073-.631-.147-1.215-.22-1.774-.074-.558-.123-1.02-.172-1.409a11.398 11.398 0 0 1-.073-.656c.147-.389.318-.875.538-1.41z"/></g><g><path fill="#f2f2f2" d="M30.969 36.575a6.662 6.662 0 0 1-.098-1.07c-.024-.389 0-.85.074-1.337.049-.51.17-.997.318-1.483.318.097.587.17.783.219.195.048.367.097.49.146.121.048.244.097.317.145.098.05.196.122.318.195.172.122.27.34.343.608.073.267.073.583.024.948-.073.34-.17.73-.367 1.143-.17.413-.465.802-.832 1.191-.146.122-.269.22-.391.243a.48.48 0 0 1-.367 0 .847.847 0 0 1-.294-.17.736.736 0 0 1-.196-.194 1.392 1.392 0 0 1-.122-.584zm-1.003-4.618c-.074.073-.123.122-.196.146.073.049.122.097.171.146.05.048.098.097.147.17l.147.219c-.098.413-.147.923-.171 1.555-.025.632-.025 1.336.024 2.163 0 .194.05.413.122.656.074.267.172.51.319.729.146.218.342.413.562.583.22.17.514.243.857.243.22 0 .44-.122.66-.34.245-.219.465-.51.661-.875s.367-.753.539-1.19c.17-.438.293-.876.367-1.289.073-.413.097-.802.073-1.142-.024-.34-.122-.607-.318-.777a3.275 3.275 0 0 0-.71-.486 6.67 6.67 0 0 0-.93-.39c-.342-.096-.685-.194-1.052-.267-.367-.072-.685-.097-.979-.121a.796.796 0 0 1-.293.267z"/></g><g><path fill="#f2f2f2" d="M39.487 31.03c-.025-.048 0-.048.073-.024.074.024.123.049.22.097.074.049.147.097.22.17.074.073.099.122.099.17a14.546 14.546 0 0 1-1.004 3.548 19.32 19.32 0 0 1-1.86 3.33c-.195.194-.39.29-.562.29-.171 0-.294-.072-.392-.242a11.923 11.923 0 0 1-.293-1.24c-.074-.51-.172-1.02-.245-1.579a22.53 22.53 0 0 0-.294-1.7 12.997 12.997 0 0 0-.367-1.605c-.073-.267-.073-.413.025-.461.098-.049.318-.025.66.097.05 0 .098.194.172.583.073.389.147.875.22 1.434.073.559.196 1.142.294 1.774.122.607.269 1.142.44 1.603.05.025.147-.073.27-.267.146-.219.293-.486.489-.85.195-.34.391-.754.587-1.191.22-.462.391-.924.587-1.385.172-.462.318-.924.44-1.361.123-.486.196-.875.22-1.19z"/></g><g><path fill="#f2f2f2" d="M41.61 34.887c.147-.462.32-.874.54-1.238.197-.364.443-.655.713-.85.246-.194.516-.242.786-.12.025 0 .074.023.099.072.073.097.073.267.024.485-.024.34-.123.656-.295.971-.196.315-.393.607-.638.85a6.38 6.38 0 0 1-.762.655c-.27.17-.516.34-.713.436 0-.412.074-.825.246-1.261zm-.074-2.088a4.645 4.645 0 0 0-.661 1.093c-.294.826-.44 1.507-.465 2.017 0 .51.024.923.098 1.24.024.072.049.17.098.267.049.121.122.243.22.364.122.146.245.267.44.389.172.121.416.243.735.34.367.073.685.073.978 0 .27-.048.539-.17.783-.316.245-.146.465-.316.686-.534.22-.195.464-.413.685-.632.195-.243.367-.413.514-.559.146-.146.269-.267.342-.365.074-.097.147-.194.196-.267l.147-.291c.024-.122.049-.243.073-.316v-.17c0-.025-.024-.025-.073 0-.22.267-.416.51-.612.704-.196.195-.465.438-.783.705a8.355 8.355 0 0 1-.783.656c-.318.243-.66.437-1.003.583-.343.146-.686.195-.98.146-.293-.049-.537-.292-.684-.68a10.702 10.702 0 0 0 1.737-1.507c.49-.535.881-1.19 1.175-1.968.22-.705.195-1.19-.05-1.434-.244-.243-.587-.364-1.027-.34-.147-.049-.318-.049-.538.024-.22.073-.343.097-.392.122-.318.17-.587.388-.856.729z"/></g><g><path fill="#f2f2f2" d="M54.008 39.706c.024.365.024.828.049 1.339v1.606c0 .584-.025 1.095-.074 1.557-.05.463-.098.876-.197 1.193-.098.316-.221.51-.369.535-.393.049-.688-.049-.91-.268-.22-.219-.368-.535-.442-.924a5.931 5.931 0 0 1-.025-1.339c.05-.487.148-.998.27-1.484.124-.487.271-.95.468-1.363.197-.414.394-.754.59-.998.099-.121.197-.243.295-.34.099-.098.197-.22.295-.317 0 .146.025.414.05.803zm-2.947-3.281a8.516 8.516 0 0 1-.269-1.07 10.35 10.35 0 0 1-.147-1.287 126.07 126.07 0 0 0-.073-1.264c-.024-.389-.024-.705-.049-.948-.024-.243-.049-.364-.098-.364a.637.637 0 0 0-.342-.146c-.147-.024-.27-.024-.343.024.049.608.073 1.118.098 1.507l.073 1.142c.05.364.074.753.123 1.166.049.413.122.924.195 1.556.074.534.27.923.612 1.19.343.268.734.292 1.224.073a3.37 3.37 0 0 0 1.1-1.093c.294-.462.515-.9.662-1.288 0 .802-.025 1.628-.074 2.454-.342.219-.685.559-.979.972-.293.413-.538.9-.758 1.41-.196.51-.367 1.069-.49 1.628a7.799 7.799 0 0 0-.195 1.652c0 .535.073 1.02.195 1.482.123.462.343.826.637 1.118.097.097.22.17.367.219.146.048.293.073.465.097.17.024.318.024.489 0 .171-.024.318-.073.44-.146.172-.097.318-.316.416-.632.098-.316.172-.704.22-1.142.05-.461.098-.947.098-1.506v-1.677c0-.559 0-1.142-.024-1.701-.024-.559-.024-1.094-.024-1.58.416-.364.832-.68 1.272-.972.44-.291.954-.51 1.542-.68.073-.049.097-.097.097-.121 0-.025-.097-.073-.244-.146a4.98 4.98 0 0 0-1.346.34c-.49.17-.93.437-1.346.802-.024-.438-.024-.85 0-1.288 0-.413.025-.826.073-1.215.025-.389.074-.753.098-1.07.025-.315.05-.607.05-.825 0-.049-.074-.073-.148-.122a1.063 1.063 0 0 0-.293-.121 6.477 6.477 0 0 1-.318-.073c-.098-.025-.147-.025-.147 0-.27 1.58-.636 2.697-1.101 3.402-.465.704-.857.972-1.224.802-.196-.098-.342-.292-.514-.56z"/></g><g><path fill="#f2f2f2" d="M57.739 36.575a6.662 6.662 0 0 1-.098-1.07c-.024-.389 0-.85.074-1.337.049-.51.17-.997.318-1.483.318.097.587.17.783.219.195.048.367.097.49.146.121.048.244.097.317.145.098.05.196.122.318.195.172.122.27.34.343.608.073.267.073.583.024.948-.073.34-.17.73-.367 1.143-.171.413-.465.802-.832 1.191-.146.122-.269.22-.391.243a.48.48 0 0 1-.367 0 .847.847 0 0 1-.294-.17.736.736 0 0 1-.196-.194c-.049-.098-.097-.316-.122-.584zm-1.003-4.618c-.074.073-.123.122-.196.146.073.049.122.097.171.146.05.048.098.097.147.17l.147.219c-.098.413-.147.923-.171 1.555-.025.632-.025 1.336.024 2.163 0 .194.049.413.122.656.074.267.172.51.319.729.146.218.342.413.562.583.22.17.514.243.857.243.22 0 .44-.122.66-.34.245-.219.465-.51.661-.875s.367-.753.539-1.19c.17-.438.293-.876.367-1.289.073-.413.097-.802.073-1.142-.024-.34-.122-.607-.318-.777a3.275 3.275 0 0 0-.71-.486 6.67 6.67 0 0 0-.93-.39c-.342-.096-.685-.194-1.052-.267-.367-.072-.685-.097-.979-.121a.796.796 0 0 1-.293.267z"/></g><g><path fill="#f2f2f2" d="M62.981 37.563c.098.072.294-.05.538-.39.245-.34.49-.777.71-1.312.22-.534.416-1.093.587-1.7.147-.608.196-1.118.147-1.556 0-.097.05-.145.123-.17.073-.024.17-.024.269-.024.098 0 .196 0 .293.024.098.024.172.024.22.049-.024.34-.073.753-.122 1.288a16.07 16.07 0 0 0-.098 1.53c-.024.51 0 .973.05 1.386.048.413.17.68.39.802.172.097.368.097.588-.025.22-.121.44-.267.66-.461.221-.195.392-.34.564-.486.17-.146.269-.195.318-.146-.074.267-.196.51-.392.753s-.44.462-.685.632c-.245.17-.514.292-.807.364a1.415 1.415 0 0 1-.783-.024c-.098-.024-.172-.097-.22-.267-.05-.17-.099-.34-.148-.56a5.692 5.692 0 0 1-.097-.68c-.025-.242-.05-.461-.074-.68l-.416.826c-.147.316-.318.608-.465.875-.147.267-.293.51-.44.705-.147.194-.245.316-.343.34-.318.122-.538.146-.71.073-.17-.073-.293-.17-.342-.292-.098-.048-.147-.194-.196-.461a9.062 9.062 0 0 1-.098-1.021c-.024-.413-.024-.875-.024-1.41v-1.603c0-.535 0-1.094-.025-1.604-.024-.535-.049-1.02-.073-1.458.098 0 .22 0 .318.024.098.025.196.025.27.049a.356.356 0 0 1 .22.146c.073.364.097.972.024 1.87-.049.9-.098 1.97-.122 3.233v.267c0 .122.024.267.049.437.024.146.073.292.122.438.049.097.122.17.22.219z"/></g><g><path fill="#f2f2f2" d="M67.875 31.297c-.025-.146.049-.17.22-.097.171.073.318.146.49.219.073.364.097.631.146.85.025.219.049.413.073.583.025.195.025.389.05.608.024.218.048.51.073.85a5.22 5.22 0 0 1 .514-.972c.195-.291.465-.559.783-.777.318-.22.685-.365 1.125-.462.44-.097.98-.146 1.59-.097a.51.51 0 0 1-.121.316c-.074.073-.294.145-.588.194-.44.073-.832.219-1.174.437a3.746 3.746 0 0 0-.857.778 4.19 4.19 0 0 0-.587.923c-.147.34-.27.632-.367.9-.025.145-.025.34-.049.583-.025.243-.049.51-.049.802 0 .291-.024.559-.024.826 0 .267 0 .486.024.632.024.073-.024.145-.098.17a.525.525 0 0 1-.293.073.582.582 0 0 1-.294-.025c-.098-.024-.147-.073-.147-.17.025-1.58 0-2.94-.122-4.082-.123-1.118-.22-2.139-.318-3.062z"/></g><g><path fill="#f2f2f2" d="M82.946 26.271h-.514c-.025 0-.025-.024-.025-.024 0-.024 0-.049-.024-.073-.025 0-.074-.073-.122-.219a2.584 2.584 0 0 0-.22-.461 2.18 2.18 0 0 0-.368-.462.707.707 0 0 0-.514-.219c-.44-.097-.783-.048-1.076.17-.27.22-.514.535-.685.973-.172.413-.319.899-.392 1.458-.073.558-.147 1.117-.196 1.676-.049.56-.049 1.094-.049 1.604s0 .923-.024 1.264c.294-.025.538-.025.734-.025.196 0 .367-.024.538-.024.172 0 .318-.024.44-.024h.466a.578.578 0 0 1 .22.146c.073.072.147.17.196.243.049.097.098.17.122.243.025.072.025.121 0 .121-.27.049-.514.073-.734.097-.22.025-.416.025-.636.049-.196.024-.416.024-.612.024-.22 0-.44.024-.71.024.025.778.05 1.483.098 2.114.05.632.098 1.216.123 1.774.049.56.073 1.118.122 1.653.049.534.073 1.118.073 1.7-.024.122-.122.17-.244.17-.123 0-.27-.023-.416-.023-.05 0-.074 0-.098-.025-.025-.024-.025-.073-.025-.218 0-.122-.024-.34-.024-.632s-.025-.705-.05-1.24c-.024-.534-.048-1.239-.097-2.065-.049-.85-.122-1.895-.22-3.135-.367.025-.636.049-.857.073-.22.024-.416.024-.562.024h-.465c-.147 0-.343 0-.588.025-.098 0-.171-.025-.171-.073 0-.049.024-.122.049-.219.049-.073.073-.17.147-.243.049-.073.098-.121.098-.17a7.44 7.44 0 0 1 .807-.121c.44-.049.954-.098 1.493-.17-.074-1.483-.074-2.698.024-3.694s.245-1.798.44-2.406c.197-.607.417-1.069.661-1.36.245-.292.49-.487.686-.584.538-.218 1.027-.218 1.443-.024.416.194.783.437 1.053.778.269.315.464.656.587.972.171.291.171.486.098.558z"/></g><g><path fill="#f2f2f2" d="M82.381 37.563c.098.072.294-.05.538-.39.245-.34.49-.777.71-1.312.22-.534.416-1.093.587-1.7.147-.608.196-1.118.147-1.556 0-.097.05-.145.123-.17.073-.024.17-.024.269-.024.098 0 .196 0 .293.024.098.024.172.024.22.049-.024.34-.073.753-.122 1.288a16.07 16.07 0 0 0-.098 1.53c-.024.51 0 .973.05 1.386.048.413.17.68.39.802.172.097.368.097.588-.025.22-.121.44-.267.66-.461.221-.195.392-.34.564-.486.17-.146.269-.195.318-.146-.074.267-.196.51-.392.753s-.44.462-.685.632c-.245.17-.514.292-.807.364a1.415 1.415 0 0 1-.783-.024c-.098-.024-.172-.097-.22-.267-.05-.17-.099-.34-.148-.56a5.692 5.692 0 0 1-.097-.68c-.025-.242-.05-.461-.074-.68l-.416.826c-.147.316-.318.608-.465.875-.147.267-.293.51-.44.705-.147.194-.245.316-.343.34-.318.122-.538.146-.71.073-.17-.073-.293-.17-.342-.292-.098-.048-.147-.194-.196-.461a9.062 9.062 0 0 1-.098-1.021c-.024-.413-.024-.875-.024-1.41v-1.603c0-.535 0-1.094-.025-1.604-.024-.535-.049-1.02-.073-1.458.098 0 .22 0 .318.024.098.025.196.025.27.049a.356.356 0 0 1 .22.146c.073.364.097.972.024 1.87-.049.9-.098 1.97-.122 3.233v.267c0 .122.024.267.049.437.024.146.073.292.122.438.049.097.122.17.22.219z"/></g><g><path fill="#f2f2f2" d="M87.275 31.297c-.025-.146.049-.17.22-.097.171.073.318.146.49.219.073.364.097.631.146.85.025.219.049.413.073.583.025.195.025.389.05.608.024.218.048.51.073.85a5.22 5.22 0 0 1 .514-.972c.195-.291.465-.559.783-.777.318-.22.685-.365 1.125-.462.44-.097.98-.146 1.59-.097a.51.51 0 0 1-.121.316c-.074.073-.294.145-.588.194-.44.073-.832.219-1.174.437a3.746 3.746 0 0 0-.857.778 4.19 4.19 0 0 0-.587.923c-.147.34-.27.632-.367.9-.025.145-.025.34-.049.583-.025.243-.049.51-.049.802 0 .291-.024.559-.024.826 0 .267 0 .486.024.632.024.073-.024.145-.098.17a.525.525 0 0 1-.293.073.582.582 0 0 1-.294-.025c-.098-.024-.147-.073-.147-.17.025-1.58 0-2.94-.122-4.082-.123-1.118-.22-2.139-.318-3.062z"/></g><g><path fill="#f2f2f2" d="M93.586 31.564v1.288c0 .438-.024.85-.024 1.24 0 .388-.024.777-.024 1.117 0 .365-.025.657-.025.948 0-.073.025-.219.098-.437.073-.243.171-.51.294-.826.122-.316.269-.632.416-.972a6.52 6.52 0 0 1 .464-.924c.172-.267.343-.486.514-.632.172-.145.343-.194.49-.145.342.145.587.364.71.68.146.292.244.632.293.996.073.365.122.802.196 1.264.073.462.196.948.416 1.458.098.219.22.389.416.51.171.097.342.195.514.219.17.048.293.073.391.073.098 0 .147.024.098.073-.391.291-.71.388-1.003.291-.27-.097-.514-.291-.71-.607a4.279 4.279 0 0 1-.465-1.118c-.122-.437-.244-.85-.342-1.264-.098-.413-.196-.753-.27-1.045-.073-.291-.17-.437-.244-.437-.147.024-.294.146-.44.389-.172.243-.319.559-.49.923a11.45 11.45 0 0 0-.49 1.215c-.146.438-.293.85-.44 1.24-.122.388-.245.704-.318.996a12.87 12.87 0 0 1-.147.51c-.22 0-.367 0-.44.024-.05.025-.147-.072-.27-.218.074-1.361.098-2.625.074-3.84a92.864 92.864 0 0 0-.098-3.134c0-.146.024-.219.098-.219a.3.3 0 0 1 .22.097c.074.073.171.122.27.195a.747.747 0 0 0 .268.073z"/></g><g><path fill="#f2f2f2" d="M99.604 31.443c.074.729.123 1.555.172 2.43.024.874.073 1.798.17 2.77.074.486.123.875.197 1.142.073.267.098.534.146.777-.244.05-.44.05-.587 0-.147-.048-.269-.121-.391-.194-.025-.243-.074-.656-.098-1.215-.05-.559-.074-1.19-.123-1.847-.048-.68-.073-1.312-.122-1.944-.049-.632-.073-1.118-.098-1.506a.22.22 0 0 0 .147-.146c.049-.073.073-.122.122-.17a.678.678 0 0 1 .196-.122c.05 0 .147 0 .27.025zm-.073-2.99c.147-.024.245.074.27.268.024.219 0 .364-.099.486-.171.146-.269.267-.318.364-.049.098-.147.17-.318.195a.418.418 0 0 0-.245 0c-.073 0-.122-.122-.171-.389.073-.17.147-.34.294-.51.146-.17.342-.316.587-.413z"/></g><g><path fill="#f2f2f2" d="M104.283 31.71c.66-.05 1.321-.098 1.957-.147.636-.048 1.322-.121 2.007-.17.147.024.244.097.293.243.05.146-.024.243-.195.267-.563.073-1.224.146-1.982.243-.735.098-1.444.243-2.105.414.025.486.05.972.05 1.458 0 .51 0 .996.024 1.482s.073.948.146 1.41c.074.461.172.874.343 1.263.22.267.44.413.66.462.22.048.417.024.612-.025a1.74 1.74 0 0 0 .539-.316c.171-.145.293-.291.44-.437.098-.097.196-.097.27 0 .073.097 0 .267-.196.486l-.343.34c-.122.122-.294.219-.49.316a2.625 2.625 0 0 1-.66.17c-.245.024-.49 0-.783-.073-.367-.097-.612-.364-.783-.85-.171-.486-.294-1.045-.392-1.677a25.196 25.196 0 0 1-.171-1.992 36.156 36.156 0 0 0-.122-1.872c-.685.073-1.175.122-1.493.17-.318.05-.538.073-.685.098-.147.024-.22 0-.27-.025-.048-.024-.122-.097-.244-.218a.335.335 0 0 0 0-.219v-.17c0-.049.049-.097.098-.146.049-.048.147-.073.318-.121.22-.073.563-.098 1.003-.098.44 0 .881-.048 1.297-.097-.024-.486-.024-.875-.049-1.142-.024-.267-.024-.51-.049-.729-.024-.219-.024-.413-.024-.607v-.778c0-.073.049-.146.122-.17a.525.525 0 0 1 .294-.073c.098 0 .22 0 .293.049a.452.452 0 0 1 .196.17c.05.146.074.34.098.607.025.268.025.56.025.85v.9c-.025.291-.025.559-.05.753z"/></g><g><path fill="#f2f2f2" d="M109.441 37.563c.098.072.294-.05.538-.39.245-.34.49-.777.71-1.312.22-.534.416-1.093.587-1.7.147-.608.196-1.118.147-1.556 0-.097.05-.145.123-.17.073-.024.17-.024.269-.024.098 0 .196 0 .293.024.098.024.172.024.22.049-.024.34-.073.753-.122 1.288a16.07 16.07 0 0 0-.098 1.53c-.024.51 0 .973.05 1.386.048.413.17.68.39.802.172.097.368.097.588-.025.22-.121.44-.267.66-.461.221-.195.392-.34.564-.486.17-.146.269-.195.318-.146-.074.267-.196.51-.392.753s-.44.462-.685.632c-.245.17-.514.292-.807.364a1.415 1.415 0 0 1-.783-.024c-.098-.024-.172-.097-.22-.267-.05-.17-.099-.34-.148-.56a5.692 5.692 0 0 1-.097-.68c-.025-.242-.05-.461-.074-.68l-.416.826c-.147.316-.318.608-.465.875-.147.267-.293.51-.44.705-.147.194-.245.316-.343.34-.318.122-.538.146-.71.073-.17-.073-.293-.17-.342-.292-.098-.048-.147-.194-.196-.461a9.062 9.062 0 0 1-.098-1.021c-.024-.413-.024-.875-.024-1.41v-1.603c0-.535 0-1.094-.025-1.604-.024-.535-.049-1.02-.073-1.458.098 0 .22 0 .318.024.098.025.196.025.27.049a.356.356 0 0 1 .22.146c.073.364.097.972.024 1.87-.049.9-.098 1.97-.122 3.233v.267c0 .122.024.267.049.437.024.146.073.292.122.438.073.097.147.17.22.219z"/></g><g><path fill="#f2f2f2" d="M114.335 31.297c-.025-.146.049-.17.22-.097.171.073.318.146.49.219.073.364.097.631.146.85.025.219.049.413.073.583.025.195.025.389.05.608.024.218.048.51.073.85a5.22 5.22 0 0 1 .514-.972c.195-.291.465-.559.783-.777.318-.22.685-.365 1.125-.462.44-.097.98-.146 1.59-.097a.51.51 0 0 1-.121.316c-.074.073-.294.145-.588.194-.44.073-.832.219-1.174.437a3.746 3.746 0 0 0-.857.778 4.19 4.19 0 0 0-.587.923c-.147.34-.27.632-.367.9-.025.145-.025.34-.049.583-.025.243-.049.51-.049.802 0 .291-.024.559-.024.826 0 .267 0 .486.024.632.024.073-.024.145-.098.17a.525.525 0 0 1-.293.073.582.582 0 0 1-.294-.025c-.098-.024-.147-.073-.147-.17.025-1.58 0-2.94-.122-4.082-.098-1.118-.22-2.139-.318-3.062z"/></g><g><path fill="#f2f2f2" d="M119.913 34.887a5.74 5.74 0 0 1 .539-1.238c.196-.364.44-.655.71-.85.244-.194.513-.242.783-.12.024 0 .073.023.097.072.074.097.074.267.025.485a2.35 2.35 0 0 1-.294.971c-.196.315-.391.607-.636.85a6.36 6.36 0 0 1-.759.655c-.269.17-.513.34-.71.436 0-.412.074-.825.245-1.261zm-.097-2.088a4.645 4.645 0 0 0-.661 1.093c-.294.826-.44 1.507-.465 2.017 0 .51.024.923.098 1.24.024.072.049.17.098.267.049.121.122.243.22.364.122.146.245.267.44.389.172.121.416.243.735.34.367.073.685.073.978 0 .27-.048.539-.17.783-.316.245-.146.465-.316.686-.534.22-.195.464-.413.685-.632.195-.243.367-.413.514-.559.146-.146.269-.267.342-.365.074-.097.147-.194.196-.267l.147-.291c.024-.122.049-.243.073-.316v-.17c0-.025-.024-.025-.073 0-.22.267-.416.51-.612.704-.196.195-.465.438-.783.705a8.355 8.355 0 0 1-.783.656c-.318.243-.66.437-1.003.583-.343.146-.661.195-.98.146-.293-.049-.537-.292-.684-.68a10.702 10.702 0 0 0 1.737-1.507c.49-.535.881-1.19 1.175-1.968.22-.705.195-1.19-.05-1.434-.244-.243-.587-.364-1.027-.34-.147-.049-.318-.049-.538.024-.22.073-.343.097-.392.122-.294.17-.563.388-.856.729z"/></g></g><g><path fill="#f2f2f2" d="M127.165 33.948a5.01 5.01 0 0 0-.098-2.333c-.27-.875-.734-1.676-1.077-2.503-.269-.631-.49-1.336-.416-2.04.05-.463.367-.876.857-.876.269 0 .538.073.758.219.22.146.44.34.588.559.195.267.391.583.562.875.05.073.074.146.123.218.049.073.073.146.122.22l.025-.074c.024-.048.049-.121.073-.17.122-.34.27-.656.416-.972l.22-.437c.05-.073.074-.146.123-.219.024-.024.048-.073.073-.097.024-.024.049-.073.073-.097.05-.073.123-.17.172-.243.367-.438.954-1.021 1.566-.875.88.219.832 1.385.71 2.09-.172.874-.637 1.676-1.077 2.454-.98 1.652-2.227 3.159-3.793 4.301z"/></g></g><g><g><path fill="#f2f2f2" d="M0 13.73V.2h9.509v2.523H2.875v2.844h6.511V8.09H2.85v3.067h6.634v2.523H0z"/></g><g><path fill="#f2f2f2" d="M20.367 8.907H16.19l2.113-5.838zm1.621 4.798h3.293L20.096.2H16.51L11.3 13.73h3.268l.835-2.3h5.75l.835 2.3z"/></g><g><path fill="#f2f2f2" d="M29.311 13.73V2.748H25.38V.2h10.737v2.523h-3.906v10.982h-2.9z"/></g><g><path fill="#f2f2f2" d="M44.2 11.818l1.548-2.176c.958.99 2.408 1.83 4.275 1.83 1.573 0 2.334-.717 2.334-1.509 0-2.399-7.74-.742-7.74-5.837 0-2.25 1.942-4.106 5.087-4.106 2.137 0 3.907.643 5.233 1.88L53.34 4.002c-1.08-1.014-2.53-1.484-3.906-1.484-1.229 0-1.917.544-1.917 1.36 0 2.152 7.715.718 7.715 5.764 0 2.473-1.744 4.328-5.38 4.328-2.556-.024-4.399-.89-5.652-2.152z"/></g><g><path fill="#f2f2f2" d="M58.18 13.73V.2h2.85v10.982h5.676v2.523H58.18z"/></g><g><path fill="#f2f2f2" d="M69.73 13.73V.2h9.509v2.523h-6.634v2.844h6.511V8.09h-6.511v3.067h6.634v2.523H69.73z"/></g><g><path fill="#f2f2f2" d="M82.46 13.73V.2h9.509v2.523h-6.634v2.844h6.511V8.09h-6.511v3.067h6.634v2.523H82.46z"/></g><g><path fill="#f2f2f2" d="M101.107 6.359H98.06V2.723h3.047c1.13 0 1.966.693 1.966 1.83 0 1.113-.86 1.83-1.966 1.806zm-5.897 7.346h2.85V8.907h3.416c2.874 0 4.496-2.004 4.496-4.354 0-2.374-1.573-4.353-4.496-4.353H95.21z"/></g><g><path fill="#f2f2f2" d="M114.92 13.73V.2h2.85v10.982h5.676v2.523h-8.526z"/></g><g><path fill="#f2f2f2" d="M126.47 13.73V.2h2.85v13.505h-2.85z"/></g><g><path fill="#f2f2f2" d="M136.734 13.73L131.55.2h3.268l3.735 10.389L142.263.2h3.268l-5.185 13.505h-3.612z"/></g><g><path fill="#f2f2f2" d="M147.74 13.73V.2h9.509v2.523h-6.634v2.844h6.511V8.09h-6.511v3.067h6.634v2.523h-9.509z"/></g></g></g></g></svg>