<?xml version="1.0" encoding="UTF-8"?><svg id="Layer_2" xmlns="http://www.w3.org/2000/svg" viewBox="0 0 278.19 278.17"><defs><style>.cls-1{fill:#808171;}</style></defs><g id="Layer_1-2"><path class="cls-1" d="M278.19,278.17c-61.97-.13-144.42-.27-206.42-.82-19.05-.18-52.73-.38-71.77-.68,0,0,.06-5.01,.06-5.01C.47,195.59,3.58,82.13,5.13,5.11,82.57,3.69,195.23,.51,271.67,.06c0,0,4.99-.06,4.99-.06l.06,5.11c.63,37.09,.72,95.72,1.08,133.27,.37,41.29,.14,98.05,.37,139.78ZM134.96,125.32c.36-.1,2.62-.3,6.8-.59,4.18-.3,6.83-.67,7.96-1.14,1.12-.46,1.69-1.38,1.69-2.74v-.59c0-1.1-.28-2.32-.83-3.64-1.77-4.18-5.34-6.27-10.71-6.27-3.55,.02-6.62,1.27-9.2,3.76-1.22,1.18-2.28,2.69-3.17,4.53-.87,1.83-1.3,3.7-1.3,5.59v.68l-.03,.68c0,2.19,.36,4.24,1.09,6.14,.73,1.9,1.76,3.47,3.08,4.69,2.45,2.25,5.52,3.37,9.23,3.37h.65c2.17,0,4.2-.43,6.09-1.27,2.92-1.3,4.38-2.52,4.38-3.67,0-.85-.39-1.27-1.18-1.27-.26,0-.89,.22-1.91,.65-1.02,.43-1.95,.8-2.81,1.11-.86,.31-1.81,.46-2.85,.46-2.6,0-4.75-.76-6.45-2.28-1.7-1.52-2.54-3.4-2.54-5.65,0-1.36,.67-2.21,2.01-2.54Zm7.42-3.46l-1.06,.12-5.71,.32-.21,.03h-.18l-.68-.03s-.18-.03-.47-.09c-.75,0-1.12-.31-1.12-.95v-.38c0-1.79,.62-3.48,1.85-5.06,1.23-1.58,2.54-2.37,3.92-2.37,.1,0,.29-.02,.56-.06h.56c1.52,0,2.8,.59,3.85,1.76,1.04,1.17,1.57,2.49,1.57,3.95v.92c0,1.22-.96,1.83-2.87,1.83Zm20.69-2.87c1.16,0,2.45-.88,3.86-2.65,1.41-1.76,2.87-2.65,4.39-2.65s2.73,.45,3.64,1.36c.91,.91,1.36,2.21,1.36,3.9s-.43,2.82-1.3,3.37c-.43,.28-1.49,.57-3.17,.89-4.61,.87-7.81,2.08-9.58,3.64-1.77,1.56-2.66,3.36-2.66,5.41v.74c0,1.91,.69,3.54,2.07,4.88,1.38,1.34,3.28,2.01,5.71,2.01,1.62,0,3.5-.5,5.65-1.49,2.15-1,3.26-1.49,3.34-1.49s.72,.56,1.92,1.69c.67,.63,1.69,.95,3.06,.95s2.77-.37,4.19-1.12c.71-.37,1.06-.92,1.06-1.63,0-.34-.55-.69-1.64-1.06-1.09-.37-1.76-.96-2.01-1.75-.25-.79-.37-3.48-.37-8.06s-.02-7.06-.06-7.44c-.41-3.71-2.06-6.13-4.94-7.28-1.42-.57-3.31-.86-5.68-.86h-.24c-2.49,0-4.89,.58-7.2,1.73-2.32,1.15-3.48,2.46-3.48,3.92,0,1.99,.69,2.99,2.07,2.99Zm13.25,8.19v.71l-.03,.71v.53c0,2.27-.29,3.77-.86,4.5-1.3,1.68-2.98,2.51-5.03,2.51h-.89l-.36-.06c-.99,0-1.79-.4-2.41-1.2-.62-.8-.93-1.7-.93-2.71v-.59c0-1.71,.86-3.15,2.59-4.3s3.88-1.73,6.46-1.73h.5c.63,0,.95,.54,.95,1.63Zm27.94,5.83c-.43-1.22-.65-4.17-.65-8.84s.35-7.51,1.04-8.52c.39-.59,1.53-1.07,3.4-1.45s2.81-.94,2.81-1.69-.85-1.33-2.54-1.73c-1.7-.4-2.79-.83-3.28-1.27-.49-.44-.87-1.44-1.14-3-.27-1.56-.44-2.42-.52-2.57-.3-.63-.88-.95-1.76-.95s-1.66,.77-2.35,2.31c-1.38,3.1-2.14,4.71-2.26,4.84-.13,.13-.87,.65-2.23,1.55-.53,.35-.8,.79-.8,1.3,0,.08,.51,.53,1.54,1.36,.55,.45,1,1.29,1.35,2.51,.35,1.22,.52,4.29,.52,9.19s.42,8.23,1.27,9.98c.49,1.01,1.27,1.85,2.34,2.54s2.26,1.04,3.58,1.04h.59c1.68,0,3.27-.42,4.79-1.27,1.52-.85,2.28-1.67,2.28-2.47s-.26-1.2-.77-1.2l-4.5,.68c-1.24,0-2.14-.78-2.69-2.34Zm-113.55,36.71c-1.08-1.03-3.08-2.17-5.98-3.43-2.9-1.26-4.54-2.02-4.91-2.28-1.48-.95-2.22-2.02-2.22-3.21s.4-2.1,1.21-2.74c.81-.63,1.91-.95,3.3-.95s2.48,.26,3.27,.78c.79,.52,1.66,1.4,2.62,2.63s1.71,1.85,2.26,1.85c.99,0,1.48-1.04,1.48-3.11s-.38-3.33-1.15-3.79c-1.48-.87-4.05-1.3-7.72-1.3h-.8c-2.8,0-5.16,.72-7.07,2.14-1.91,1.43-2.87,3.29-2.87,5.58s.66,4.06,1.98,5.31c1.32,1.25,3.32,2.45,5.99,3.59,2.67,1.14,4.37,1.98,5.1,2.52,1.38,1.01,2.07,2.1,2.07,3.28s-.4,2.13-1.21,2.85c-.81,.72-2.07,1.08-3.77,1.08s-3.19-.43-4.45-1.3c-.65-.45-1.46-1.35-2.43-2.68-.97-1.33-1.8-2-2.51-2-.85,0-1.27,1.13-1.27,3.4v.74c0,1.78,.54,2.92,1.63,3.43,1.95,.93,4.79,1.39,8.52,1.39h.8c3.27,0,5.84-.8,7.69-2.41,1.85-1.61,2.78-3.54,2.78-5.8s-.78-4.13-2.34-5.61Zm12.79,13.31h.62l4.85-.09h1.21l1.21-.06c2.44,0,3.67-.35,3.67-1.04,0-.47-.38-.94-1.12-1.39-.75-.45-1.16-.71-1.24-.77-.69-.63-1.13-1.64-1.32-3.03-.19-1.39-.28-5-.28-10.84v-9.38l.03-1.21v-1.86l.03-1.21v-6.36c0-2.8-.01-4.29-.03-4.47-.16-1.36-.74-2.04-1.75-2.04h-.59c-2.96,0-5.33,.38-7.1,1.15-.57,.26-.86,.55-.86,.89v.36c0,.2,.65,.72,1.95,1.57,.81,.53,1.32,1.41,1.52,2.63,.21,1.22,.31,6.42,.31,15.59s-.16,14.45-.47,15.84c-.31,1.39-.92,2.41-1.82,3.06-.9,.65-1.35,1.18-1.35,1.6,0,.71,.84,1.06,2.51,1.06Zm27.49-13.96c.36-.1,2.62-.3,6.8-.59,4.18-.3,6.83-.67,7.96-1.14,1.12-.46,1.69-1.38,1.69-2.74v-.59c0-1.1-.28-2.32-.83-3.64-1.77-4.18-5.34-6.27-10.71-6.27-3.55,.02-6.62,1.27-9.2,3.76-1.22,1.18-2.28,2.69-3.17,4.53-.87,1.83-1.3,3.7-1.3,5.59v.68l-.03,.68c0,2.19,.36,4.24,1.09,6.14,.73,1.9,1.76,3.47,3.08,4.69,2.45,2.25,5.52,3.37,9.23,3.37h.65c2.17,0,4.2-.43,6.09-1.27,2.92-1.3,4.38-2.52,4.38-3.67,0-.85-.39-1.27-1.18-1.27-.26,0-.89,.22-1.91,.65-1.02,.43-1.95,.8-2.81,1.11-.86,.31-1.81,.46-2.85,.46-2.6,0-4.75-.76-6.45-2.28-1.7-1.52-2.54-3.4-2.54-5.65,0-1.36,.67-2.21,2.01-2.54Zm7.42-3.46l-1.06,.12-5.71,.32-.21,.03h-.18l-.68-.03s-.18-.03-.47-.09c-.75,0-1.12-.31-1.12-.95v-.38c0-1.79,.62-3.48,1.85-5.06,1.23-1.58,2.54-2.37,3.92-2.37,.1,0,.29-.02,.56-.06h.56c1.52,0,2.8,.59,3.85,1.76,1.04,1.17,1.57,2.49,1.57,3.95v.92c0,1.22-.96,1.83-2.87,1.83Zm25.84,3.46c.36-.1,2.62-.3,6.8-.59,4.18-.3,6.83-.67,7.96-1.14,1.12-.46,1.69-1.38,1.69-2.74v-.59c0-1.1-.28-2.32-.83-3.64-1.77-4.18-5.34-6.27-10.71-6.27-3.55,.02-6.62,1.27-9.2,3.76-1.22,1.18-2.28,2.69-3.17,4.53-.87,1.83-1.3,3.7-1.3,5.59v.68l-.03,.68c0,2.19,.36,4.24,1.09,6.14,.73,1.9,1.76,3.47,3.08,4.69,2.45,2.25,5.52,3.37,9.23,3.37h.65c2.17,0,4.2-.43,6.09-1.27,2.92-1.3,4.38-2.52,4.38-3.67,0-.85-.39-1.27-1.18-1.27-.26,0-.89,.22-1.91,.65-1.02,.43-1.95,.8-2.81,1.11-.86,.31-1.81,.46-2.85,.46-2.6,0-4.75-.76-6.45-2.28-1.7-1.52-2.54-3.4-2.54-5.65,0-1.36,.67-2.21,2.01-2.54Zm7.42-3.46l-1.06,.12-5.71,.32-.21,.03h-.18l-.68-.03s-.18-.03-.47-.09c-.75,0-1.12-.31-1.12-.95v-.38c0-1.79,.62-3.48,1.85-5.06,1.23-1.58,2.54-2.37,3.92-2.37,.1,0,.29-.02,.56-.06h.56c1.52,0,2.8,.59,3.85,1.76,1.04,1.17,1.57,2.49,1.57,3.95v.92c0,1.22-.96,1.83-2.87,1.83Zm28.59,16.92l4.73,.36c1.99,0,3.74-.3,5.24-.89,3.53-1.38,6.03-3.98,7.51-7.81,.75-1.93,1.12-3.82,1.12-5.65v-1.66c0-1.78-.35-3.6-1.04-5.47-1.16-3.19-3.09-5.37-5.77-6.54-1.4-.61-2.65-.92-3.76-.92h-1.54c-1.24,0-2.71,.39-4.41,1.18-.06,.04-.57,.33-1.52,.87-.96,.54-1.59,.81-1.91,.81-.08,0-.46-.39-1.14-1.18s-1.35-1.18-2-1.18c-2.52,0-4.56,.38-6.09,1.12-.47,.24-.71,.56-.71,.98s.41,.91,1.24,1.49c.83,.58,1.34,1.04,1.54,1.38,.51,.89,.77,2.3,.77,4.23l.06,3.17v12.28c0,5.03-.18,8.45-.53,10.25-.36,1.8-.84,3-1.45,3.59-1.14,1.1-1.72,1.79-1.72,2.07,0,.91,2.25,1.36,6.74,1.36h2.96c2.56,0,3.85-.44,3.85-1.33,0-.41-.43-.92-1.29-1.51-.86-.59-1.48-1.25-1.86-1.97s-.58-2.41-.58-5.06,.51-3.98,1.54-3.98Zm9.9-5.24c-1.29,1.99-3.02,2.99-5.19,2.99h-.3c-1.81,0-3.26-.47-4.33-1.41-1.08-.94-1.61-2.24-1.61-3.92,0-.2-.02-.51-.06-.95v-.62l-.03-.3v-1.24l-.03-.32v-2.51c0-4.54,.27-7.27,.81-8.19,.54-.93,1.33-1.69,2.35-2.29,1.03-.6,2.08-.9,3.17-.9h.3c1.97,0,3.61,.95,4.91,2.84,1.3,1.89,1.95,4.43,1.95,7.6v1.75c0,3-.65,5.49-1.94,7.48Zm-70.58,58.47h.62l4.85-.09h1.21l1.21-.06c2.44,0,3.67-.35,3.67-1.04,0-.47-.38-.94-1.12-1.39-.75-.45-1.16-.71-1.24-.77-.69-.63-1.13-1.64-1.32-3.03-.19-1.39-.28-5-.28-10.84v-9.38l.03-1.21v-1.86l.03-1.21v-6.36c0-2.8-.01-4.29-.03-4.47-.16-1.36-.74-2.04-1.75-2.04h-.59c-2.96,0-5.33,.38-7.1,1.15-.57,.26-.86,.55-.86,.89v.36c0,.2,.65,.72,1.95,1.57,.81,.53,1.32,1.41,1.52,2.63,.21,1.22,.31,6.42,.31,15.59s-.16,14.45-.47,15.84c-.31,1.39-.92,2.41-1.82,3.06-.9,.65-1.35,1.18-1.35,1.6,0,.71,.84,1.06,2.51,1.06Zm22.74-22.91c.31,.78,.46,3.51,.46,8.18l-.03,.92v.92l-.03,1.39v.92l-.03,.95c0,2.68-.19,4.39-.56,5.12-.34,.67-.94,1.28-1.82,1.83-.88,.55-1.32,1.12-1.32,1.72,0,.71,.72,1.06,2.16,1.06h3.61l.89-.03c4.89,0,7.34-.37,7.34-1.12,0-.53-.52-1.06-1.57-1.58-1.05-.52-1.71-1.27-1.98-2.25-.28-.98-.41-4.78-.41-11.42s-.04-10.22-.12-10.75c-.14-.99-.74-1.48-1.8-1.48h-.86c-3.12,0-5.39,.43-6.83,1.3-.41,.26-.62,.6-.62,1.04s.51,.9,1.54,1.39c1.03,.49,1.69,1.13,2,1.91Zm7.41-15.75l-.06-.27c0-.67-.33-1.34-.99-2-.66-.66-1.3-.99-1.91-.99l-1.01-.12h-.15c-1.06,0-2.01,.35-2.82,1.05-.82,.7-1.23,1.56-1.23,2.59v.53c0,1.03,.39,1.86,1.17,2.51,.78,.65,1.66,.98,2.65,.98l.65-.06c.1,0,.23-.02,.38-.06,.73,0,1.46-.37,2.2-1.11,.74-.74,1.11-1.54,1.11-2.41v-.65Zm27.76,36.75c.83-1.51,2.43-5.2,4.79-11.06,2.37-5.87,3.68-9.03,3.93-9.48,.55-1.01,1.35-1.85,2.4-2.53,1.04-.68,1.57-1.38,1.57-2.09,0-.83-1.2-1.24-3.61-1.24h-.71c-3.67,0-5.5,.43-5.5,1.27,0,.02,.26,.4,.77,1.15,.51,.75,.77,1.46,.77,2.13,0,2.72-1.59,7.59-4.76,14.61-.53,1.18-.92,1.78-1.15,1.78s-.64-.65-1.21-1.95c-3.08-7.12-4.61-12.03-4.61-14.73,0-.69,.11-1.33,.32-1.91s.33-.9,.33-.96c0-.89-1.55-1.33-4.65-1.33s-5.08,.09-5.94,.27c-.87,.18-1.3,.57-1.3,1.18,0,.37,.54,.92,1.63,1.64,1.08,.72,1.88,1.54,2.4,2.45,.51,.92,1.93,4.34,4.26,10.28,2.33,5.94,3.72,9.34,4.17,10.21,.91,1.72,1.82,2.57,2.75,2.57h.68c.97,0,1.86-.75,2.69-2.26Zm26.96-12.05c.36-.1,2.62-.3,6.8-.59,4.18-.3,6.83-.67,7.96-1.14,1.12-.46,1.69-1.38,1.69-2.74v-.59c0-1.1-.28-2.32-.83-3.64-1.77-4.18-5.34-6.27-10.71-6.27-3.55,.02-6.62,1.27-9.2,3.76-1.22,1.18-2.28,2.69-3.17,4.53-.87,1.83-1.3,3.7-1.3,5.59v.68l-.03,.68c0,2.19,.36,4.24,1.09,6.14,.73,1.9,1.76,3.47,3.08,4.69,2.45,2.25,5.52,3.37,9.23,3.37h.65c2.17,0,4.2-.43,6.09-1.27,2.92-1.3,4.38-2.52,4.38-3.67,0-.85-.39-1.27-1.18-1.27-.26,0-.89,.22-1.91,.65-1.02,.43-1.95,.8-2.81,1.11-.86,.31-1.81,.46-2.85,.46-2.6,0-4.75-.76-6.45-2.28-1.7-1.52-2.54-3.4-2.54-5.65,0-1.36,.67-2.21,2.01-2.54Zm7.42-3.46l-1.06,.12-5.71,.32-.21,.03h-.18l-.68-.03s-.18-.03-.47-.09c-.75,0-1.12-.31-1.12-.95v-.38c0-1.79,.62-3.48,1.85-5.06,1.23-1.58,2.54-2.37,3.92-2.37,.1,0,.29-.02,.56-.06h.56c1.52,0,2.8,.59,3.85,1.76,1.04,1.17,1.57,2.49,1.57,3.95v.92c0,1.22-.96,1.83-2.87,1.83Z"/></g></svg>