<svg width="24" height="24" viewBox="0 0 24 24" fill="none" xmlns="http://www.w3.org/2000/svg">
<path fill-rule="evenodd" clip-rule="evenodd" d="M13.1962 17.4806C13.1961 17.4806 13.1961 17.4806 13 16.5L13.1962 17.4806C13.0255 17.5147 12.8489 17.5037 12.6838 17.4487L9.68377 16.4487C9.15983 16.274 8.87667 15.7077 9.05132 15.1838C9.22597 14.6598 9.79228 14.3767 10.3162 14.5513L13.0649 15.4675L13.1299 15.4546C13.3376 15.4135 13.6352 15.3547 13.9955 15.2842C14.7158 15.1433 15.6873 14.9553 16.6907 14.7671C17.6931 14.5792 18.732 14.3902 19.5856 14.248C20.3915 14.1137 21.1468 14 21.5 14C21.9057 14 22.3577 14.1014 22.721 14.4193C23.1018 14.7525 23.25 15.205 23.25 15.625C23.25 16.3889 22.7839 17.1303 22.2071 17.7071C21.6651 18.2491 20.4839 19.2978 19.0369 20.2187C17.6177 21.1217 15.7924 22 14 22C12.3307 22 10.953 21.5801 9.80877 21.1987C9.70138 21.1629 9.59712 21.1279 9.49571 21.0939C8.46239 20.7472 7.72542 20.5 7 20.5H2C1.44772 20.5 1 20.0523 1 19.5C1 18.9477 1.44772 18.5 2 18.5H7C8.07488 18.5 9.13865 18.8605 10.1007 19.1865C10.2157 19.2255 10.3293 19.264 10.4412 19.3013C11.547 19.6699 12.6693 20 14 20C15.2076 20 16.6323 19.3783 17.9631 18.5313C19.2661 17.7022 20.3349 16.7509 20.7929 16.2929C20.8779 16.2078 20.9494 16.1269 21.0088 16.0517C20.7384 16.0885 20.3696 16.1449 19.9144 16.2208C19.0805 16.3598 18.0569 16.5458 17.0593 16.7329C16.0627 16.9197 15.0967 17.1067 14.3795 17.247C14.021 17.3172 13.7249 17.3756 13.5186 17.4165L13.1962 17.4806Z" fill="#434241"/>
<path fill-rule="evenodd" clip-rule="evenodd" d="M7.58581 2.58579C7.96088 2.21071 8.46959 2 9.00002 2H21C21.5305 2 22.0392 2.21071 22.4142 2.58579C22.7893 2.96086 23 3.46957 23 4V12C23 12.5523 22.5523 13 22 13C21.4477 13 21 12.5523 21 12V4L9.00002 4V8C9.00002 8.55228 8.55231 9 8.00002 9C7.44774 9 7.00002 8.55228 7.00002 8V4C7.00002 3.46957 7.21074 2.96086 7.58581 2.58579ZM4.1328 13.0451L12.7932 15.4071C12.9544 15.2769 13.1387 15.115 13.3017 14.9411C13.4653 14.7665 13.567 14.6225 13.6188 14.5213C13.577 14.4848 13.5226 14.4413 13.454 14.3911C13.2899 14.271 13.0708 14.1321 12.8019 13.9805C12.2648 13.6777 11.5777 13.3516 10.8409 13.0508C10.1051 12.7505 9.33832 12.4831 8.6449 12.2923C7.93436 12.0968 7.36505 12 7.00002 12C6.23925 12 5.41409 12.2901 4.62116 12.7432C4.45318 12.8392 4.28998 12.9406 4.1328 13.0451ZM13 16.5L13.5547 17.332C13.3141 17.4924 13.0159 17.5408 12.7369 17.4648L1.73691 14.4648C1.393 14.371 1.12502 14.1012 1.03352 13.7567C0.942028 13.4121 1.04085 13.045 1.29292 12.7929C1.84407 12.2417 2.66357 11.5584 3.62888 11.0068C4.58596 10.4599 5.76079 10 7.00002 10C7.63499 10 8.40944 10.1532 9.17545 10.364C9.9586 10.5794 10.8012 10.8745 11.5967 11.1992C12.3911 11.5234 13.1572 11.8848 13.7841 12.2383C14.0972 12.4148 14.3879 12.5962 14.6349 12.7769C14.8691 12.9482 15.1183 13.1577 15.3 13.4C15.75 14 15.7055 14.6648 15.5184 15.1636C15.3449 15.6263 15.0303 16.0214 14.7608 16.3089C14.4795 16.609 14.1793 16.8625 13.957 17.0369C13.8441 17.1254 13.7472 17.1967 13.6771 17.2469C13.642 17.272 13.6133 17.292 13.5926 17.3063L13.5673 17.3236L13.5594 17.3289L13.5566 17.3308L13.5547 17.332C13.5545 17.3322 13.5547 17.332 13 16.5Z" fill="#434241"/>
<path fill-rule="evenodd" clip-rule="evenodd" d="M11.5 3C11.5 2.44772 11.9477 2 12.5 2H17.5C18.0523 2 18.5 2.44772 18.5 3V7.5C18.5 8.05228 18.0523 8.5 17.5 8.5H12.5C11.9477 8.5 11.5 8.05228 11.5 7.5V3ZM13.5 4V6.5H16.5V4H13.5Z" fill="#434241"/>
</svg>
