<svg width="24" height="27" viewBox="0 0 24 27" fill="none" xmlns="http://www.w3.org/2000/svg">
    <path fill-rule="evenodd" clip-rule="evenodd" d="M6.251 7.032a.792.792 0 0 1 1.212 0L17.75 18.604c.335.376.335.987 0 1.364a.792.792 0 0 1-1.212 0L6.25 8.396a1.051 1.051 0 0 1 0-1.364z" fill="#434241"/>
    <path fill-rule="evenodd" clip-rule="evenodd" d="M17.749 7.032c.335.377.335.988 0 1.364L7.463 19.968a.792.792 0 0 1-1.212 0 1.051 1.051 0 0 1 0-1.364L16.537 7.032a.791.791 0 0 1 1.212 0z" fill="#434241"/>
</svg>
