<svg width="24" height="24" viewBox="0 0 24 24" fill="none" xmlns="http://www.w3.org/2000/svg">
<path fill-rule="evenodd" clip-rule="evenodd" d="M15.4691 0.069967C15.9326 0.262805 16.1521 0.794915 15.9592 1.25847L14.8247 3.98567C14.6319 4.44922 14.0998 4.66868 13.6362 4.47584C13.1727 4.283 12.9532 3.75089 13.146 3.28734L14.2806 0.56014C14.4734 0.0965869 15.0055 -0.122871 15.4691 0.069967ZM19.4578 0.0776651C19.9171 0.280421 20.1251 0.817125 19.9223 1.27643L16.2085 9.68937C16.7924 10.0188 17.3341 10.4282 17.8164 10.9106C19.2144 12.3086 19.9998 14.2046 19.9998 16.1816C19.9998 18.1586 19.2144 20.0547 17.8164 21.4526C16.4185 22.8506 14.5224 23.636 12.5454 23.636C10.5684 23.636 8.67237 22.8506 7.27441 21.4526C5.87645 20.0547 5.09108 18.1586 5.09108 16.1816C5.09108 14.2046 5.87645 12.3086 7.27441 10.9106C7.62785 10.5572 8.01313 10.2429 8.42352 9.97054L4.09617 1.31585C3.87164 0.866792 4.05366 0.32074 4.50272 0.0962101C4.95178 -0.12832 5.49783 0.0536977 5.72236 0.502757L10.0497 9.15747C10.6462 8.94552 11.2706 8.80921 11.9084 8.75453L8.27576 1.30787C8.05563 0.856636 8.24299 0.312393 8.69422 0.0922694C9.14546 -0.127854 9.6897 0.0595 9.90982 0.510736L13.9866 8.8679C14.1687 8.90377 14.349 8.94637 14.5274 8.99556L18.2591 0.542182C18.4618 0.0828801 18.9985 -0.125091 19.4578 0.0776651ZM12.5454 10.5454C11.0506 10.5454 9.61702 11.1392 8.56002 12.1962C7.50303 13.2532 6.90921 14.6868 6.90921 16.1816C6.90921 17.6764 7.50303 19.11 8.56002 20.167C9.61702 21.224 11.0506 21.8178 12.5454 21.8178C14.0402 21.8178 15.4738 21.224 16.5308 20.167C17.5878 19.11 18.1816 17.6764 18.1816 16.1816C18.1816 14.6868 17.5878 13.2532 16.5308 12.1962C15.4738 11.1392 14.0402 10.5454 12.5454 10.5454Z" fill="#434241"/>
</svg>
