<svg width="24" height="24" viewBox="0 0 24 24" fill="none" xmlns="http://www.w3.org/2000/svg">
<path d="M6.54939 18.6208L10.0725 15.0979L8.90224 13.9277L5.37918 17.4507L4.7229 16.7944C4.5677 16.6393 4.35723 16.5521 4.13779 16.5521C3.91834 16.5521 3.70788 16.6393 3.55268 16.7944L0.242308 20.1047C0.0871583 20.2598 0 20.4703 0 20.6897C0 20.9092 0.0871583 21.1196 0.242308 21.2748L2.72509 23.7575C2.88028 23.9127 3.09075 23.9998 3.31019 23.9998C3.52964 23.9998 3.74011 23.9127 3.8953 23.7575L7.20567 20.4473C7.36082 20.2921 7.44798 20.0816 7.44798 19.8622C7.44798 19.6427 7.36082 19.4323 7.20567 19.2771L6.54939 18.6208ZM3.31019 22.0023L1.99763 20.6897L4.13779 18.5497L5.45035 19.8622L3.31019 22.0023Z" fill="#434241"/>
<path d="M19.0341 23.1714C17.7176 23.1699 16.4555 22.6462 15.5246 21.7154C14.5937 20.7845 14.0701 19.5225 14.0685 18.206C14.0689 17.7734 14.1274 17.3428 14.2423 16.9258L7.07372 9.75663C6.65638 9.87159 6.2255 9.93004 5.79261 9.93042C4.98358 9.93365 4.18611 9.73837 3.47012 9.3617C2.75412 8.98502 2.14147 8.43845 1.68588 7.76992C1.23029 7.10138 0.945662 6.33128 0.856963 5.52715C0.768264 4.72302 0.878197 3.90941 1.17713 3.15766L1.63892 1.98169L4.37991 4.72257C4.53741 4.87297 4.74682 4.95689 4.9646 4.95689C5.18239 4.95689 5.39179 4.87297 5.5493 4.72257C5.62622 4.64579 5.68724 4.55459 5.72888 4.45419C5.77052 4.3538 5.79195 4.24618 5.79195 4.13749C5.79195 4.0288 5.77052 3.92118 5.72888 3.82079C5.68724 3.72039 5.62622 3.62919 5.5493 3.5524L2.80914 0.809864L3.9868 0.348913C4.73858 0.0505295 5.55205 -0.0589595 6.35597 0.030037C7.15989 0.119034 7.92972 0.4038 8.59802 0.859391C9.26632 1.31498 9.8127 1.9275 10.1893 2.64327C10.5659 3.35905 10.7612 4.15626 10.7582 4.96505C10.7578 5.39765 10.6993 5.82824 10.5844 6.24529L17.7538 13.4145C18.1709 13.2996 18.6015 13.2412 19.0341 13.2407C19.8431 13.2374 20.6406 13.4327 21.3566 13.8094C22.0726 14.1861 22.6852 14.7326 23.1408 15.4012C23.5964 16.0697 23.881 16.8398 23.9697 17.6439C24.0584 18.4481 23.9485 19.2617 23.6496 20.0134L23.1886 21.1894L20.4468 18.4485C20.2893 18.2981 20.0799 18.2142 19.8621 18.2142C19.6443 18.2142 19.4349 18.2981 19.2774 18.4485C19.2004 18.5252 19.1393 18.6164 19.0976 18.7168C19.0559 18.8171 19.0344 18.9247 19.0343 19.0334C19.0343 19.1421 19.0556 19.2497 19.0972 19.3502C19.1388 19.4506 19.1997 19.5418 19.2766 19.6187L22.0184 22.3604L20.8416 22.8222C20.2663 23.051 19.6532 23.1694 19.0341 23.1714ZM7.49911 7.84165L16.1566 16.4988L15.9588 17.0036C15.7649 17.4881 15.6892 18.0118 15.7377 18.5314C15.7863 19.051 15.9577 19.5516 16.238 19.9918C16.5182 20.432 16.8992 20.7993 17.3494 21.0632C17.7996 21.3271 18.3062 21.4802 18.8272 21.5097L18.1064 20.7897C17.8758 20.5591 17.6929 20.2854 17.5681 19.9842C17.4433 19.6829 17.379 19.3601 17.379 19.034C17.379 18.7079 17.4433 18.3851 17.5681 18.0838C17.6929 17.7826 17.8758 17.5089 18.1064 17.2783C18.5793 16.8267 19.2081 16.5748 19.8621 16.5748C20.5161 16.5748 21.1449 16.8267 21.6178 17.2783L22.3378 17.9991C22.3082 17.4781 22.1551 16.9716 21.891 16.5214C21.627 16.0712 21.2597 15.6903 20.8194 15.4101C20.3791 15.1298 19.8784 14.9584 19.3588 14.9098C18.8391 14.8613 18.3154 14.937 17.8308 15.1308L17.3268 15.3286L8.67015 6.67231L8.86877 6.1675C9.06262 5.68291 9.13837 5.15915 9.08978 4.6395C9.04118 4.11984 8.86963 3.61921 8.5893 3.17896C8.30897 2.73871 7.9279 2.37148 7.47758 2.10761C7.02727 1.84373 6.52062 1.6908 5.99951 1.66143L6.71951 2.3814C6.95011 2.61195 7.13302 2.88566 7.25782 3.1869C7.38262 3.48814 7.44685 3.81101 7.44685 4.13707C7.44685 4.46314 7.38262 4.78601 7.25782 5.08726C7.13302 5.3885 6.95011 5.6622 6.71951 5.89275C6.24654 6.34435 5.61773 6.59633 4.96378 6.59633C4.30982 6.59633 3.68101 6.34435 3.20804 5.89275L2.48803 5.17194C2.51753 5.69296 2.67056 6.19949 2.9345 6.64969C3.19843 7.09988 3.56569 7.48083 4.00594 7.76106C4.44619 8.04129 4.9468 8.21276 5.46641 8.26131C5.98602 8.30986 6.50973 8.23409 6.99427 8.04027L7.49911 7.84165Z" fill="#434241"/>
<path d="M23.2741 0.703588C22.8012 0.251986 22.1724 0 21.5184 0C20.8644 0 20.2356 0.251986 19.7627 0.703588L13.5723 6.89375L14.7425 8.06392L20.9329 1.87376C21.0905 1.72331 21.3001 1.63936 21.518 1.63936C21.7359 1.63936 21.9454 1.72331 22.1031 1.87376C22.2578 2.02916 22.3447 2.23954 22.3447 2.45885C22.3447 2.67815 22.2578 2.88853 22.1031 3.04393L15.9127 9.23409L17.0829 10.4051L23.2733 4.21493C23.7384 3.749 23.9996 3.11758 23.9996 2.45926C23.9996 1.80094 23.7384 1.16952 23.2733 0.703588H23.2741Z" fill="#434241"/>
</svg>
