<svg width="20" height="18" viewBox="0 0 20 18" fill="none" xmlns="http://www.w3.org/2000/svg">
<path fill-rule="evenodd" clip-rule="evenodd" d="M10 2.22795C8.627 0.525979 6.53793 -0.221928 4.60702 0.0570143C3.38263 0.233892 2.21629 0.825512 1.35895 1.84725C0.498879 2.87225 0 4.26912 0 5.97231C0 9.44563 2.56031 12.4616 4.83471 14.4884C6.00373 15.5301 7.16813 16.3728 8.03809 16.9542C8.47404 17.2456 8.83849 17.4729 9.09584 17.6286C9.22457 17.7064 9.32667 17.7664 9.39771 17.8075C9.43323 17.8281 9.461 17.844 9.48047 17.855L9.50338 17.868L9.51004 17.8717L9.51214 17.8729C9.51243 17.8731 9.51343 17.8736 10 17L9.51343 17.8736C9.81593 18.0421 10.1841 18.0421 10.4866 17.8736L10 17C10.4866 17.8736 10.4863 17.8738 10.4866 17.8736L10.49 17.8717L10.4966 17.868L10.5195 17.855C10.539 17.844 10.5668 17.8281 10.6023 17.8075C10.6733 17.7664 10.7754 17.7064 10.9042 17.6286C11.1615 17.4729 11.526 17.2456 11.9619 16.9542C12.8319 16.3728 13.9963 15.5301 15.1653 14.4884C17.4397 12.4616 20 9.44563 20 5.97231C20 4.26912 19.5011 2.87225 18.641 1.84725C17.7837 0.825512 16.6174 0.233892 15.393 0.0570143C13.4621 -0.221928 11.373 0.525979 10 2.22795ZM10 15.8374C9.7769 15.7004 9.48681 15.5169 9.14941 15.2914C8.33187 14.745 7.24627 13.9585 6.1653 12.9952C3.93969 11.0119 2 8.51412 2 5.97231C2 4.66795 2.37612 3.74649 2.89105 3.13283C3.40871 2.5159 4.11737 2.14851 4.89298 2.03647C6.45319 1.81107 8.26088 2.62661 9.07966 4.5533C9.23655 4.92248 9.59886 5.16218 10 5.16218C10.4011 5.16218 10.7635 4.92248 10.9203 4.5533C11.7391 2.62661 13.5468 1.81107 15.107 2.03647C15.8826 2.14851 16.5913 2.5159 17.109 3.13283C17.6239 3.74649 18 4.66795 18 5.97231C18 8.51412 16.0603 11.0119 13.8347 12.9952C12.7537 13.9585 11.6681 14.745 10.8506 15.2914C10.5132 15.5169 10.2231 15.7004 10 15.8374Z" fill="white"/>
</svg>
